<?xml version="1.0" standalone="no"?>
<!DOCTYPE svg PUBLIC "-//W3C//DTD SVG 20010904//EN"
 "http://www.w3.org/TR/2001/REC-SVG-20010904/DTD/svg10.dtd">
<svg version="1.0" xmlns="http://www.w3.org/2000/svg"
 width="896.000000pt" height="896.000000pt" viewBox="0 0 896.000000 896.000000"
 preserveAspectRatio="xMidYMid meet">
<metadata>
Created by potrace 1.14, written by Peter Selinger 2001-2017
</metadata>
<g transform="translate(0.000000,896.000000) scale(0.100000,-0.100000)"
fill="#000000" stroke="none">
<path d="M3602 8602 c-9 -21 -9 -28 1 -34 9 -6 9 -10 -3 -18 -8 -5 -10 -10 -4
-10 6 0 11 -7 11 -15 0 -8 -4 -12 -9 -9 -4 3 -8 0 -8 -6 0 -6 -5 -8 -12 -4 -7
5 -9 2 -6 -8 5 -12 0 -14 -24 -12 -17 2 -38 10 -46 16 -10 8 -13 9 -9 2 4 -7
0 -15 -9 -18 -14 -5 -14 -9 -3 -23 12 -14 12 -15 1 -9 -12 7 -12 4 -1 -15 7
-13 13 -24 13 -24 0 0 -7 -11 -16 -24 -14 -20 -27 -25 -62 -25 -24 -1 -42 2
-39 7 8 12 -8 8 -23 -8 -19 -18 -19 -26 -2 -36 10 -7 10 -9 -2 -9 -13 0 -13
-1 0 -10 13 -8 13 -10 0 -10 -10 0 -11 -3 -3 -11 14 -14 -16 -48 -36 -41 -10
4 -12 1 -6 -9 7 -12 6 -12 -7 -1 -23 19 -55 23 -67 8 -11 -13 -8 -76 4 -98 5
-7 5 -10 1 -6 -4 3 -16 -2 -27 -13 -15 -15 -24 -17 -39 -9 -11 6 -20 8 -20 4
0 -3 -6 -1 -14 5 -10 9 -16 8 -26 -4 -7 -9 -10 -18 -7 -21 3 -3 2 -17 -4 -31
-5 -15 -5 -22 0 -18 6 3 9 -4 8 -15 -1 -11 -5 -20 -10 -20 -4 0 -6 -4 -3 -9 3
-5 0 -11 -7 -13 -18 -7 -136 -3 -143 5 -4 4 -13 2 -21 -4 -7 -6 -13 -7 -13 -2
0 5 -7 10 -15 10 -8 0 -15 -4 -15 -9 0 -4 -5 -7 -12 -5 -13 2 -18 -55 -5 -64
4 -3 1 -18 -6 -32 -8 -15 -17 -24 -20 -20 -4 3 -7 1 -7 -5 0 -11 -63 -7 -82 5
-5 2 -8 -1 -8 -8 0 -8 -4 -8 -15 1 -11 9 -15 9 -15 1 0 -7 -4 -9 -10 -6 -5 3
-26 8 -46 9 -40 4 -52 -12 -48 -65 1 -16 -2 -29 -7 -29 -5 0 -8 -5 -6 -12 1
-8 -13 -13 -38 -15 -22 -1 -49 -4 -60 -7 -11 -2 -22 -5 -25 -5 -3 -1 2 -6 10
-11 11 -7 11 -10 2 -10 -8 0 -10 -5 -6 -12 11 -17 11 -58 1 -58 -4 0 -5 -6 0
-12 8 -13 12 -121 5 -113 -3 2 -12 -5 -22 -17 -12 -15 -21 -18 -31 -12 -8 5
-29 9 -46 10 -26 1 -30 -2 -22 -13 9 -10 8 -13 0 -13 -7 0 -9 -5 -4 -12 10
-18 12 -58 2 -58 -5 0 -6 -8 -2 -17 3 -10 3 -15 -2 -11 -4 4 -16 3 -26 -2 -10
-6 -20 -7 -23 -2 -4 6 -32 8 -67 3 -10 -2 -5 -55 6 -63 6 -5 6 -8 -2 -8 -6 0
-10 -8 -9 -17 4 -26 -25 -55 -41 -41 -7 6 -13 7 -13 2 0 -5 -5 -2 -10 6 -6 10
-10 11 -10 2 0 -13 -21 -12 -31 1 -3 4 -18 3 -32 -2 -17 -7 -27 -7 -27 -1 0 6
-9 6 -24 0 -16 -6 -27 -5 -35 3 -9 9 -11 8 -6 -5 4 -11 2 -20 -7 -23 -9 -4
-13 -19 -11 -44 1 -22 -4 -44 -10 -49 -19 -14 -56 -21 -63 -11 -3 5 -10 9 -15
9 -6 0 -8 -4 -5 -9 3 -4 -6 -6 -19 -3 -14 2 -22 9 -19 14 4 6 -6 2 -22 -8 -16
-11 -25 -13 -20 -6 10 16 -25 13 -36 -3 -5 -6 -8 -4 -8 5 0 13 -1 13 -10 0 -6
-10 -10 -11 -10 -2 0 6 -5 12 -11 12 -5 0 -7 -6 -3 -12 6 -10 4 -10 -7 0 -16
15 -33 16 -23 0 5 -7 3 -8 -7 -3 -18 12 -189 14 -189 3 0 -5 -5 -6 -11 -3 -7
5 -10 -8 -8 -36 3 -64 0 -81 -11 -74 -5 3 -10 2 -10 -4 0 -11 -40 -8 -60 4 -9
5 -11 4 -6 -4 6 -9 0 -10 -21 -5 -15 4 -29 8 -31 9 -2 2 -17 -1 -33 -5 -20 -6
-27 -5 -23 2 4 7 -2 8 -17 3 -32 -10 -32 -9 -34 -57 -2 -24 -3 -49 -4 -55 0
-7 -10 -13 -21 -13 -11 0 -20 -6 -20 -12 0 -8 -3 -9 -8 -3 -11 15 -32 17 -32
3 0 -10 -2 -10 -8 -2 -11 19 -56 21 -70 4 -8 -8 -11 -9 -7 -2 4 8 -4 12 -30
12 -22 0 -34 4 -30 10 3 6 0 13 -8 15 -8 4 -12 16 -9 34 2 16 -1 38 -7 49 -10
19 -15 20 -86 8 -11 -2 -24 -4 -28 -5 -5 0 -5 -5 -2 -11 3 -5 2 -10 -3 -10 -5
0 -7 -14 -3 -32 5 -24 3 -36 -8 -46 -14 -10 -14 -11 3 -5 15 5 17 3 11 -8 -5
-8 -8 -27 -6 -43 2 -21 -1 -26 -11 -20 -7 4 -4 -3 7 -16 11 -13 15 -20 8 -17
-7 5 -9 0 -6 -13 3 -12 8 -18 11 -15 3 2 10 1 17 -5 7 -6 20 -4 37 4 24 13 26
12 20 -2 -5 -15 -4 -16 13 -2 11 9 16 10 11 3 -4 -7 -3 -13 3 -13 11 0 27 -39
22 -55 -8 -29 -8 -41 3 -50 16 -15 157 -16 149 -1 -4 7 -2 7 8 -1 16 -13 36
-12 58 1 10 6 12 5 7 -2 -4 -7 -1 -12 7 -12 11 0 14 -13 12 -52 -2 -59 3 -77
16 -57 7 11 9 11 9 -3 0 -12 6 -15 23 -11 18 4 19 3 7 -6 -9 -7 -10 -11 -3
-11 6 0 14 4 17 9 4 5 53 9 111 8 71 0 102 -4 98 -11 -4 -7 -1 -6 8 1 20 16
31 17 39 3 9 -15 50 8 50 27 0 7 4 13 9 13 6 0 6 12 2 28 -5 15 -7 39 -5 55 1
15 -1 27 -5 27 -4 0 -8 7 -8 15 0 8 5 15 11 15 6 0 5 4 -2 9 -11 7 -11 11 2
23 9 10 11 19 5 25 -6 6 10 10 43 12 33 1 59 8 68 18 13 14 13 15 0 7 -12 -6
-13 -5 -3 7 7 9 9 20 3 29 -6 10 -3 21 7 33 16 17 16 17 -3 11 -10 -3 -5 3 11
13 21 14 32 17 37 9 6 -8 8 -8 8 0 0 6 7 11 15 11 8 0 15 -3 15 -7 0 -9 32 -6
48 4 7 4 12 2 12 -5 0 -8 4 -8 15 1 12 10 15 10 15 0 0 -10 3 -10 15 0 11 9
15 9 15 1 0 -9 5 -9 20 -1 14 8 20 8 20 0 0 -7 6 -8 18 -1 11 6 24 6 34 0 11
-6 19 -6 23 1 4 6 13 7 24 1 10 -6 23 -6 31 -1 8 5 21 5 31 0 9 -5 19 -6 23
-3 12 12 58 15 51 3 -3 -5 -1 -10 5 -10 6 0 9 -4 5 -9 -3 -5 -1 -12 5 -16 7
-4 7 -12 0 -26 -8 -13 -7 -19 0 -19 8 0 8 -6 0 -20 -8 -14 -8 -20 0 -20 6 0 8
-4 5 -10 -11 -19 -14 -50 -4 -55 5 -4 6 -12 2 -18 -11 -17 -10 -77 1 -77 6 0
5 -5 -2 -12 -7 -7 -8 -17 -2 -28 5 -9 5 -22 0 -30 -5 -8 -5 -21 1 -31 6 -12 5
-20 -1 -24 -6 -4 -8 -11 -5 -16 4 -5 2 -9 -3 -9 -17 0 1 -53 19 -57 10 -3 16
-10 12 -16 -4 -6 -1 -7 8 -1 20 12 40 15 69 9 l25 -5 0 -273 c-1 -149 -4 -278
-8 -284 -5 -8 -3 -13 5 -13 9 0 9 -3 -2 -10 -11 -7 -11 -10 -2 -10 7 0 10 -4
7 -10 -5 -9 23 -15 48 -11 4 0 7 -5 8 -11 0 -7 3 -5 7 4 6 15 11 16 32 5 23
-12 25 -18 26 -92 1 -45 -4 -86 -10 -94 -9 -12 -8 -13 4 -6 13 8 13 7 1 -8 -9
-12 -10 -17 -2 -17 7 0 9 -4 6 -10 -3 -5 1 -10 9 -10 9 0 16 -4 16 -10 0 -11
28 -9 48 3 6 5 12 4 12 -1 0 -5 8 -12 18 -15 17 -4 19 -15 19 -105 0 -56 -4
-99 -9 -96 -4 3 -8 -2 -8 -10 0 -11 -10 -14 -45 -12 -25 1 -45 -1 -45 -6 0 -5
-4 -6 -10 -3 -5 3 -10 -1 -10 -9 0 -9 -6 -16 -12 -16 -8 -1 -6 -6 5 -14 13
-10 15 -15 5 -19 -10 -3 -11 -9 -1 -25 8 -13 9 -23 3 -27 -7 -4 -6 -13 1 -26
7 -14 7 -24 0 -33 -6 -7 -8 -16 -4 -20 10 -9 13 -37 4 -32 -4 3 -14 -4 -21
-15 -16 -21 -36 -27 -24 -6 5 8 2 8 -9 -2 -12 -9 -17 -10 -17 -2 0 9 -5 9 -20
1 -15 -8 -20 -8 -20 2 0 8 -3 9 -8 3 -8 -13 -22 -13 -41 -1 -10 6 -12 5 -7 -2
4 -7 3 -12 -3 -12 -5 0 -13 5 -17 11 -4 8 -9 7 -15 -2 -7 -11 -9 -11 -9 -1 0
8 -7 6 -21 -7 -14 -13 -20 -27 -16 -40 3 -12 1 -21 -4 -21 -4 0 -6 -6 -3 -13
3 -8 -2 -20 -10 -27 -9 -7 -13 -16 -10 -21 3 -5 -2 -6 -10 -3 -9 3 -13 11 -10
16 4 6 -2 5 -14 -1 -13 -7 -23 -7 -27 -1 -3 5 -13 2 -23 -8 -18 -17 -24 -74
-9 -88 11 -11 8 -26 -4 -18 -8 4 -8 0 0 -15 8 -14 8 -21 1 -21 -7 0 -8 -6 0
-19 13 -26 13 -34 -2 -25 -10 6 -10 5 -1 -7 7 -9 8 -20 3 -29 -5 -8 -6 -19 -2
-25 5 -8 12 -113 8 -116 -1 0 -23 -2 -51 -5 -67 -7 -78 -11 -71 -29 3 -8 0
-15 -7 -15 -7 0 -8 -3 -2 -8 13 -9 18 -55 5 -47 -6 3 -10 -3 -10 -15 0 -12 -4
-18 -10 -15 -6 4 -18 1 -27 -7 -14 -11 -15 -11 -9 0 6 10 0 13 -25 10 -28 -2
-34 -7 -33 -25 0 -19 -2 -21 -14 -10 -13 10 -14 9 -5 -8 5 -11 9 -36 8 -55 -1
-19 3 -41 8 -48 6 -8 6 -12 -1 -12 -6 0 -7 -13 -2 -35 4 -19 4 -33 0 -30 -5 3
-10 0 -12 -6 -2 -6 -22 -12 -43 -13 -43 -2 -99 -26 -77 -34 10 -3 10 -7 1 -18
-9 -11 -9 -14 1 -14 10 0 10 -3 0 -15 -9 -10 -9 -15 -1 -15 6 0 11 -5 11 -11
0 -5 -5 -7 -12 -3 -8 5 -8 3 -2 -7 11 -16 15 -281 4 -274 -3 2 -7 -3 -7 -11 0
-9 6 -13 16 -9 11 4 9 0 -5 -16 -13 -16 -15 -23 -6 -26 6 -3 12 -9 12 -14 0
-6 -5 -7 -11 -3 -8 4 -7 0 1 -15 6 -12 15 -19 21 -16 5 4 9 2 9 -3 0 -5 17 -8
37 -6 55 3 62 -2 58 -47 -3 -21 0 -39 5 -39 5 0 6 -7 3 -17 -4 -11 -3 -14 5
-9 7 4 12 3 12 -2 0 -6 17 -8 39 -6 27 3 43 -1 52 -12 15 -19 20 -54 6 -54 -5
0 -4 -7 3 -15 7 -8 9 -15 6 -15 -4 0 -1 -6 6 -13 10 -11 63 -14 236 -13 122 0
222 4 222 9 0 4 5 5 10 2 6 -4 10 11 10 39 0 47 22 81 46 72 7 -3 16 -1 20 5
3 6 10 6 17 1 14 -10 93 -10 103 1 12 12 26 8 18 -5 -5 -10 -4 -10 6 -1 15 14
40 6 40 -13 0 -8 5 -14 11 -14 5 0 7 -6 3 -12 -5 -7 -9 -27 -10 -45 -1 -36 10
-43 65 -41 40 1 55 -19 56 -77 l0 -40 63 -3 c36 -2 60 -7 57 -12 -4 -6 -1 -10
4 -10 6 0 11 -5 11 -11 0 -5 -6 -7 -12 -3 -10 5 -10 4 -1 -6 9 -9 9 -19 2 -33
-8 -15 -8 -18 1 -12 9 5 10 1 5 -14 -5 -17 -2 -21 14 -21 12 0 21 -6 21 -12 0
-8 3 -9 8 -3 10 14 31 17 59 10 20 -5 22 -8 12 -26 -8 -15 -8 -19 0 -15 7 5
11 -1 11 -14 0 -12 -4 -19 -8 -16 -5 3 -9 -1 -9 -9 0 -8 4 -12 9 -9 4 3 8 -2
8 -10 0 -16 5 -18 63 -20 17 0 37 -5 43 -11 16 -15 24 -65 10 -65 -6 0 -4 -5
4 -10 8 -5 11 -10 5 -10 -5 0 -11 -11 -11 -25 -1 -14 2 -23 6 -20 5 3 5 -7 1
-22 -4 -16 -6 -52 -4 -82 1 -30 -2 -60 -8 -67 -7 -8 -6 -15 2 -20 8 -5 9 -3 4
6 -5 9 -4 11 4 6 6 -4 8 -12 5 -18 -10 -15 -13 -69 -5 -64 4 3 7 -4 7 -15 0
-10 -4 -19 -9 -19 -5 0 -4 -7 3 -15 9 -11 9 -15 1 -15 -7 0 -9 -4 -6 -10 3 -5
1 -10 -5 -10 -6 0 -8 -5 -4 -12 5 -8 0 -9 -14 -6 -12 4 -20 2 -16 -3 9 -15
-13 -10 -29 6 -13 13 -16 13 -21 0 -3 -8 -12 -12 -21 -9 -16 7 -16 5 -18 -96
0 -38 3 -54 12 -52 9 2 9 -3 2 -17 -8 -14 -7 -21 2 -24 9 -4 9 -6 -1 -6 -7 -1
-11 -5 -8 -9 2 -4 1 -14 -4 -22 -7 -12 -30 -16 -104 -19 -16 -1 -17 -3 -5 -18
8 -9 9 -14 3 -10 -7 4 -14 0 -18 -8 -3 -8 -1 -17 4 -20 6 -4 10 -11 10 -16 0
-6 -4 -7 -10 -4 -6 3 -7 -1 -4 -9 4 -11 0 -16 -11 -16 -9 0 -14 -4 -11 -8 7
-11 -38 -10 -46 2 -4 5 -13 2 -23 -7 -22 -22 -31 -22 -14 0 13 16 12 17 -3 5
-13 -11 -17 -29 -16 -83 1 -39 5 -72 10 -75 4 -3 3 -15 -3 -26 -9 -16 -8 -23
2 -29 11 -7 11 -9 1 -9 -7 0 -10 -4 -7 -10 3 -5 1 -10 -5 -10 -6 0 -9 -4 -6
-8 5 -8 -74 -5 -83 3 -2 2 -10 -2 -17 -10 -10 -10 -13 -39 -11 -114 1 -56 -2
-101 -6 -101 -5 0 -5 -4 -2 -10 3 -5 1 -10 -5 -10 -6 0 -9 -4 -5 -9 6 -10 -27
-7 -45 4 -6 3 -10 2 -10 -3 0 -5 -7 -9 -15 -9 -8 0 -15 4 -15 9 0 5 -9 4 -20
-2 -14 -8 -20 -8 -20 0 0 7 -6 8 -18 1 -11 -6 -24 -6 -34 0 -11 6 -19 6 -23
-1 -4 -6 -11 -8 -16 -5 -8 6 -11 -2 -8 -21 0 -4 -5 -11 -13 -15 -9 -6 -10 -9
-1 -9 9 0 10 -7 3 -25 -6 -17 -6 -25 1 -25 6 0 3 -7 -5 -16 -9 -8 -20 -12 -26
-9 -5 3 -10 1 -10 -5 0 -7 -7 -8 -17 -3 -22 11 -44 10 -62 -1 -10 -6 -12 -5
-7 2 10 16 -7 15 -23 0 -8 -7 -11 -8 -8 -2 4 7 -8 11 -33 11 -22 0 -38 -2 -36
-5 3 -2 -1 -11 -9 -19 -12 -11 -12 -19 -4 -35 8 -15 8 -19 -1 -13 -7 4 -10 2
-9 -6 6 -30 -11 -55 -36 -54 -14 1 -28 4 -31 8 -4 4 -13 -1 -21 -11 -9 -12
-12 -13 -8 -2 4 11 -2 15 -20 15 -14 0 -25 -4 -25 -8 0 -5 -6 -5 -12 -1 -17
11 -48 12 -48 3 0 -4 -8 -5 -18 -2 -16 4 -18 -2 -18 -39 1 -26 -5 -48 -14 -56
-13 -12 -13 -13 0 -6 10 5 12 4 5 -4 -5 -6 -33 -12 -60 -13 l-50 -2 -2 -46 c0
-25 -6 -47 -12 -49 -6 -2 -9 -7 -7 -11 3 -4 -4 -13 -16 -20 -11 -7 -17 -8 -13
-2 9 15 -8 14 -23 -1 -9 -9 -12 -9 -12 1 0 10 -3 11 -13 2 -8 -6 -17 -7 -21
-3 -4 4 -7 3 -6 -3 5 -23 -1 -36 -12 -29 -10 6 -10 4 -2 -7 6 -8 10 -31 10
-52 -1 -20 4 -37 9 -37 6 0 5 -4 -1 -8 -7 -4 -11 -18 -10 -32 1 -14 -3 -31 -8
-39 -8 -11 -8 -13 1 -7 8 4 13 1 13 -9 0 -9 4 -13 10 -10 5 3 10 2 10 -3 0 -6
7 -13 16 -16 9 -3 12 -2 8 5 -4 6 1 9 12 8 11 -2 24 0 31 4 6 4 15 2 19 -4 5
-8 2 -10 -7 -5 -8 4 -5 0 5 -8 14 -11 20 -28 19 -51 -1 -29 4 -38 26 -49 18
-10 32 -11 44 -5 11 7 17 6 17 -1 0 -5 7 -10 15 -10 15 0 17 -7 18 -72 1 -33
8 -45 20 -35 2 1 11 -4 20 -12 13 -10 17 -10 17 -1 0 9 4 9 13 2 7 -6 18 -7
26 -3 7 4 30 5 52 1 31 -6 41 -4 49 9 6 11 9 12 10 3 0 -7 4 -10 10 -7 5 3 10
-1 10 -10 0 -10 5 -13 12 -9 7 5 9 2 5 -9 -3 -9 -1 -18 6 -21 9 -5 9 -7 -1
-12 -6 -3 -9 -11 -5 -17 4 -7 8 -21 8 -32 1 -11 7 -19 14 -17 7 1 19 -2 26 -8
7 -6 16 -7 19 -2 6 10 36 9 53 -1 6 -4 14 -3 17 1 3 5 16 9 28 8 13 -1 26 2
29 7 3 5 19 -3 34 -17 15 -14 22 -26 15 -26 -10 0 -10 -3 0 -15 10 -12 10 -15
-1 -15 -12 0 -12 -2 -1 -9 8 -4 13 -11 13 -15 -3 -19 1 -24 22 -31 35 -11 197
-11 197 0 0 7 3 7 8 0 8 -12 61 -13 80 -2 6 5 12 5 12 0 0 -4 46 -7 102 -6
204 5 301 0 306 -15 2 -6 7 -10 10 -8 4 2 6 -18 5 -44 -1 -40 2 -48 15 -43 11
5 13 3 7 -6 -6 -10 -3 -11 12 -2 14 7 23 7 31 -1 9 -9 12 -9 12 1 0 10 3 11
14 2 11 -9 16 -9 21 0 6 8 10 7 16 -2 7 -11 9 -11 9 -1 0 8 5 10 12 6 19 -12
68 -12 68 0 0 6 4 5 9 -3 6 -9 10 -10 16 -2 5 9 10 9 21 0 8 -6 14 -7 14 -2 0
5 9 9 20 9 11 0 20 -4 20 -9 0 -5 7 -4 15 3 12 10 15 10 15 0 0 -10 3 -10 15
0 12 10 15 10 15 0 0 -10 3 -10 15 0 12 10 15 10 15 0 0 -10 3 -10 15 0 12 10
15 10 15 0 0 -10 3 -10 15 0 12 10 15 10 15 0 0 -10 3 -10 15 0 12 10 15 10
15 0 0 -9 3 -10 13 -1 8 6 17 8 20 5 10 -10 50 -11 70 -2 11 6 17 5 17 -3 0
-8 4 -8 15 1 8 7 15 8 15 3 0 -11 36 -11 46 0 4 3 15 2 25 -4 14 -7 19 -6 19
2 0 8 4 9 13 0 10 -8 17 -7 25 1 9 9 12 9 12 -1 0 -10 3 -11 14 -2 10 9 16 9
21 1 5 -8 11 -8 21 1 11 9 14 9 14 0 0 -8 5 -9 19 -1 12 6 22 6 25 1 7 -10 25
-9 43 2 6 4 15 3 18 -3 5 -8 11 -8 20 0 10 8 15 8 20 0 5 -8 10 -8 20 0 10 8
15 8 20 0 5 -8 10 -8 20 0 10 8 15 8 20 0 5 -8 10 -8 20 0 10 8 15 8 20 0 5
-8 10 -8 20 0 10 8 15 8 20 0 5 -8 10 -8 20 0 10 8 15 8 20 -1 6 -8 10 -7 16
2 7 11 9 11 9 1 0 -10 5 -10 20 -2 14 8 20 8 20 0 0 -7 6 -8 19 0 14 7 22 7
27 -1 4 -8 9 -7 15 2 7 12 9 12 9 0 0 -11 3 -11 15 -1 12 10 15 10 15 0 0 -10
3 -10 15 0 12 10 15 10 15 0 0 -10 3 -10 15 0 12 10 15 10 15 0 0 -10 3 -10
14 -1 10 8 16 9 21 1 9 -14 27 -2 19 13 -3 7 2 3 10 -7 10 -13 16 -15 16 -7 0
10 3 11 14 2 11 -9 16 -9 21 0 6 8 10 7 16 -2 7 -12 9 -12 9 0 0 11 3 11 15 1
12 -10 15 -10 15 0 0 9 4 9 17 -1 11 -10 14 -10 9 -1 -4 6 -3 12 3 12 5 0 13
-5 17 -11 4 -8 9 -7 15 2 8 12 11 11 19 -1 7 -11 10 -11 10 -2 0 7 4 11 9 8
14 -9 28 17 26 49 -1 17 4 39 11 50 8 11 14 16 14 11 0 -5 6 -3 14 3 11 9 15
9 19 -1 4 -9 6 -9 6 -1 1 8 10 9 29 4 15 -4 36 -6 47 -5 37 4 79 4 140 1 33
-1 68 1 78 5 11 6 17 5 17 -4 0 -10 2 -10 9 0 11 19 15 19 33 4 13 -10 17 -10
20 0 4 11 8 11 20 0 11 -9 18 -10 23 -2 4 7 13 7 27 -1 15 -8 19 -8 14 0 -9
14 0 14 25 1 14 -8 19 -7 19 1 0 9 3 9 14 0 11 -9 15 -9 19 1 4 10 8 10 16 -2
6 -8 11 -10 11 -5 0 6 9 11 20 11 11 0 20 -4 20 -9 0 -5 7 -4 15 3 12 10 15
10 15 -1 0 -12 2 -12 9 -1 4 8 11 13 15 13 29 -4 37 0 31 19 -3 11 -2 20 3 20
6 0 9 8 8 18 -4 26 16 53 30 41 8 -7 14 -6 19 1 3 6 10 8 15 5 5 -3 12 0 15 5
5 8 14 5 28 -7 11 -10 17 -12 13 -5 -5 8 0 12 14 12 14 0 19 -4 15 -12 -4 -7
0 -5 8 5 8 10 17 14 18 8 3 -5 20 -3 44 6 22 8 45 15 52 15 7 1 10 5 7 10 -3
4 3 8 13 9 14 0 12 3 -6 10 l-24 9 22 24 c17 18 19 25 9 29 -9 4 -9 6 -1 6 24
2 25 -22 2 -42 l-24 -19 28 16 c24 15 31 15 45 4 15 -11 15 -11 0 8 -17 19
-16 20 14 22 18 2 35 6 38 10 3 4 20 8 38 7 29 0 37 6 33 28 0 4 2 7 6 7 5 0
9 16 10 37 2 41 13 55 45 59 13 1 25 3 28 4 7 3 22 7 35 8 6 1 11 19 12 39 0
21 6 39 12 41 6 2 9 8 5 13 -3 5 7 9 21 9 16 0 24 4 19 11 -4 8 -1 8 12 1 14
-7 24 -7 36 2 14 10 17 31 16 127 l-1 115 -26 -1 c-14 -1 -32 4 -40 9 -11 8
-13 8 -7 -2 4 -6 4 -12 -1 -12 -10 0 -41 20 -31 20 4 0 1 12 -7 27 -8 15 -12
30 -9 35 12 19 -8 48 -32 48 -14 0 -23 -4 -20 -9 3 -4 -10 -1 -29 7 -19 9 -30
19 -24 23 7 4 5 8 -4 12 -10 4 -13 16 -11 36 2 17 -1 31 -7 31 -6 0 -7 5 -4
10 3 6 3 10 -2 11 -4 0 -18 2 -30 3 -13 2 -23 -2 -23 -8 0 -6 -3 -7 -10 0 -6
6 -35 7 -70 4 -33 -3 -60 -2 -60 3 0 4 -4 6 -9 3 -11 -7 -33 18 -30 36 4 35
-2 79 -11 73 -6 -3 -10 -2 -10 4 0 11 -39 9 -59 -4 -9 -5 -12 -4 -7 3 3 6 2
13 -4 17 -5 3 -10 1 -10 -6 0 -7 -10 -9 -25 -7 -14 3 -25 1 -25 -6 0 -6 -4 -4
-10 4 -8 12 -10 12 -16 -3 -3 -9 -10 -14 -15 -11 -5 3 -7 9 -4 14 3 4 -4 6
-14 3 -11 -3 -28 4 -40 16 -25 25 -26 31 -7 31 21 0 14 57 -10 74 -14 11 -21
11 -26 3 -6 -9 -8 -9 -8 0 0 6 -8 10 -17 8 -10 -2 -18 -4 -18 -5 0 -1 -15 -2
-33 -3 -17 -1 -32 2 -32 6 0 4 -9 3 -19 -3 -13 -7 -22 -7 -26 0 -4 7 -12 7
-25 0 -12 -6 -21 -7 -25 0 -3 5 -15 6 -28 1 -14 -6 -30 -5 -41 1 -14 8 -17 7
-12 -1 10 -15 -7 -14 -23 2 -11 10 -12 9 -6 -3 5 -9 -1 -7 -15 5 -22 19 -23
19 -16 1 5 -14 4 -16 -6 -8 -7 5 -25 9 -40 7 -16 -2 -35 5 -47 16 -23 22 -27
39 -9 39 6 0 9 3 5 6 -13 13 30 43 65 46 l36 2 1 110 c2 100 4 113 23 131 16
15 32 19 60 17 l38 -4 0 161 c0 89 3 161 8 161 4 0 12 10 17 22 6 13 15 23 22
23 6 0 15 3 19 7 4 4 13 3 21 -4 11 -9 19 -6 38 16 22 26 24 56 4 56 -5 0 -9
45 -9 99 0 76 3 100 14 104 9 4 13 18 12 36 -1 17 2 31 8 31 5 0 1 7 -10 16
-10 8 -12 12 -4 8 12 -6 13 -5 3 7 -7 9 -23 15 -35 13 -13 -1 -23 -3 -23 -4 0
-1 -10 -3 -22 -4 -37 -4 -86 74 -54 86 13 5 20 108 7 108 -7 0 -7 3 1 8 8 5 7
13 -6 28 -11 14 -27 20 -54 19 -21 0 -41 3 -43 7 -3 5 -10 5 -16 2 -7 -4 -8
-2 -4 4 4 7 2 12 -3 12 -6 0 -11 21 -11 49 l0 49 -45 -2 c-25 -1 -45 2 -45 7
0 4 -6 5 -12 1 -7 -4 -10 -4 -6 1 4 4 3 15 -1 24 -5 9 -10 34 -12 56 -3 42
-16 59 -34 46 -20 -16 -55 -20 -55 -6 0 7 -7 15 -15 19 -12 4 -15 25 -15 98 0
95 2 103 33 127 14 11 20 11 32 1 13 -11 14 -10 8 6 -6 17 -5 18 11 5 20 -16
238 -23 269 -9 9 5 17 5 17 1 0 -7 595 -10 610 -3 3 1 8 2 12 1 5 0 6 18 4 41
-7 70 1 75 144 73 69 -1 133 3 143 7 9 5 17 5 17 1 0 -14 166 -9 183 6 19 15
23 41 7 41 -5 0 -10 7 -10 15 0 8 7 15 15 15 8 0 12 6 9 15 -4 10 3 16 23 20
15 4 33 8 40 10 7 2 15 0 18 -5 4 -7 13 -6 26 0 10 6 19 7 19 2 0 -10 64 -9
98 2 20 7 22 12 18 56 -4 38 -1 50 12 56 9 4 20 6 25 6 4 -1 7 2 7 6 0 5 20 6
45 2 24 -4 42 -3 39 2 -3 4 -1 8 5 8 5 0 12 -4 15 -9 3 -5 15 -7 26 -4 11 3
17 10 13 17 -4 6 1 5 11 -3 19 -16 66 -22 66 -9 0 4 5 8 11 8 5 0 8 -4 5 -8
-8 -14 49 -7 60 7 9 12 13 11 22 -5 7 -11 12 -13 12 -6 0 7 5 10 11 7 15 -10
80 -12 86 -3 2 5 7 6 11 4 4 -2 8 12 9 32 2 58 9 77 27 76 9 -1 16 2 16 6 0 5
10 6 22 2 16 -4 19 -2 14 9 -4 8 0 5 9 -6 14 -17 17 -18 25 -5 8 12 10 12 10
1 0 -11 3 -11 15 -1 8 7 15 8 15 3 0 -5 16 -8 35 -8 24 0 35 5 35 15 0 13 1
13 11 0 8 -12 10 -12 8 5 -5 70 1 95 26 101 14 3 25 11 25 18 0 6 4 5 9 -3 8
-13 12 -13 27 0 14 11 16 11 10 0 -6 -9 -5 -12 5 -9 11 4 14 31 16 114 1 71 5
108 12 107 9 -3 14 8 13 27 0 3 11 6 24 6 15 1 21 -2 17 -10 -4 -6 1 -5 10 2
9 8 20 11 26 8 5 -3 12 1 15 10 9 23 7 587 -2 600 -4 7 -20 12 -37 11 -52 0
-66 3 -60 13 3 6 1 10 -4 10 -7 0 -11 24 -11 58 0 40 -3 53 -10 42 -9 -13 -10
-13 -10 0 0 9 -3 11 -8 4 -9 -14 -65 -11 -70 4 -2 7 -9 12 -16 12 -14 0 -9 61
6 71 7 5 -21 47 -36 52 -3 1 -12 -7 -21 -18 -8 -11 -15 -15 -14 -10 3 22 -2
29 -10 16 -8 -12 -11 -12 -25 1 -8 9 -12 18 -9 22 4 3 0 6 -8 6 -9 0 -14 11
-13 32 2 50 -10 66 -46 62 -18 -2 -35 -6 -38 -8 -16 -9 -36 32 -34 69 1 11 -4
23 -11 27 -9 6 -9 8 1 8 6 0 12 5 12 11 0 5 -5 7 -10 4 -6 -3 -13 0 -16 8 -6
16 -44 11 -56 -7 -6 -8 -8 -8 -8 0 0 15 -160 15 -160 0 0 -8 -2 -8 -8 0 -10
14 -145 14 -154 0 -6 -8 -8 -8 -8 0 0 15 -53 15 -62 0 -6 -8 -8 -8 -8 1 0 17
-112 13 -136 -5 -19 -14 -19 -15 0 -8 19 7 19 6 2 -13 -11 -12 -14 -21 -7 -26
15 -9 14 -28 -1 -19 -10 5 -10 4 -1 -6 8 -9 7 -16 -6 -29 -20 -20 -50 -23 -70
-7 -11 8 -13 8 -7 -1 4 -7 2 -13 -3 -13 -6 0 -11 6 -11 13 0 9 -3 8 -9 -2 -6
-9 -10 -10 -16 -2 -5 9 -10 9 -21 0 -11 -9 -14 -8 -14 2 0 11 -2 11 -10 -1 -5
-8 -10 -10 -10 -4 0 6 -15 10 -32 9 -27 -2 -33 -6 -32 -23 0 -12 -3 -22 -8
-22 -5 0 -3 -10 3 -22 9 -16 9 -23 0 -26 -6 -2 -11 -10 -11 -17 0 -8 -8 -12
-20 -10 -11 2 -20 -2 -20 -8 0 -8 -3 -8 -8 -2 -9 12 -44 16 -36 4 3 -5 -2 -9
-10 -9 -9 0 -16 -8 -17 -17 -1 -10 -2 -27 -3 -38 0 -11 2 -27 6 -36 4 -8 3
-21 -2 -29 -4 -7 -5 -23 0 -35 4 -12 4 -29 -1 -38 -7 -11 -6 -17 0 -17 7 0 7
-8 1 -25 -7 -17 -6 -25 1 -25 7 0 6 -6 -2 -17 -8 -9 -9 -14 -2 -10 8 5 11 -3
9 -28 -1 -19 -5 -35 -10 -34 -5 0 -12 -5 -17 -12 -6 -10 -13 -10 -34 -1 -18 8
-24 9 -19 1 4 -7 0 -9 -12 -5 -11 3 -23 2 -29 -2 -12 -9 -15 -132 -2 -132 4 0
5 -5 1 -12 -11 -17 -13 -88 -2 -94 4 -3 5 -11 1 -17 -10 -17 -11 -47 -1 -41
13 8 10 -10 -4 -25 -10 -11 -10 -13 0 -7 7 4 12 1 12 -8 0 -26 -41 -39 -115
-37 -38 0 -81 3 -95 4 -14 2 -31 -2 -38 -10 -7 -7 -10 -13 -6 -13 3 0 1 -7 -6
-15 -7 -8 -8 -15 -3 -15 5 0 9 -10 7 -22 -1 -13 -3 -27 -3 -31 -1 -5 -5 -5
-11 -2 -5 3 -10 1 -10 -4 0 -7 -45 -11 -131 -11 -101 0 -129 -3 -124 -12 4 -7
-1 -4 -9 6 -9 11 -16 15 -16 10 0 -6 -13 -9 -30 -6 -16 2 -27 8 -24 13 3 5 0
9 -6 9 -6 0 -8 5 -5 10 3 6 -1 10 -9 10 -18 0 -21 17 -4 22 7 3 12 34 14 82 2
65 -1 80 -16 94 -21 17 -58 23 -66 10 -12 -19 -37 26 -38 70 l-1 47 -58 -2
c-33 -1 -55 2 -52 8 4 5 1 9 -4 9 -6 0 -11 7 -11 15 0 8 -4 15 -10 15 -14 0
-12 32 4 53 7 9 21 17 30 17 9 0 16 6 16 13 0 8 3 8 9 -2 14 -22 47 -21 49 2
0 11 6 23 11 26 6 4 11 21 13 39 1 18 6 32 10 32 4 0 7 5 5 12 -1 9 26 13 98
14 55 0 105 2 111 2 6 1 16 20 22 42 5 22 6 37 1 34 -13 -8 -10 8 4 26 7 9 27
15 50 15 51 -1 61 8 63 52 2 62 9 69 66 71 28 0 53 3 55 6 2 2 5 27 7 55 1 27
5 53 9 57 3 4 27 6 51 6 34 -1 48 3 55 16 5 9 8 63 7 119 -3 94 -1 102 18 112
17 9 81 10 81 1 0 -1 8 -3 18 -5 9 -2 15 1 11 6 -8 14 20 11 35 -3 12 -11 13
-10 7 6 -7 19 -6 19 13 2 12 -11 21 -14 26 -6 3 5 10 8 15 5 12 -7 19 22 19
78 -1 28 -5 48 -12 48 -54 6 -167 2 -167 -6 0 -5 -5 -3 -10 5 -8 12 -10 12
-11 -5 l0 -20 -9 20 c-5 11 -9 16 -10 10 -2 -14 -18 27 -19 48 -1 10 11 29 25
42 21 19 30 22 50 15 16 -6 24 -6 24 1 0 6 5 7 11 4 7 -5 9 12 8 51 -2 36 2
59 9 62 6 2 9 9 6 16 -3 7 4 12 16 12 11 0 20 -3 20 -6 0 -3 41 -6 90 -7 86
-1 90 0 96 21 4 17 0 111 -5 111 -1 0 -21 0 -45 0 -24 0 -42 -4 -39 -9 3 -4
-5 -5 -18 0 -47 15 -157 -8 -127 -27 7 -5 8 -9 2 -9 -12 0 -12 -29 1 -49 6
-10 4 -12 -4 -7 -8 6 -11 2 -9 -10 2 -15 -4 -18 -37 -19 -48 -1 -85 30 -79 67
3 13 0 29 -5 37 -10 16 -69 23 -77 9 -3 -5 -15 0 -26 12 -17 18 -19 32 -16
100 2 49 -1 80 -7 80 -7 0 -7 3 0 8 6 4 10 86 10 210 0 128 -4 202 -10 202 -7
0 -7 3 0 8 6 4 10 30 10 57 0 28 -4 53 -10 57 -7 5 -6 8 0 8 8 0 10 137 9 435
l-2 435 27 7 c14 4 38 7 53 7 14 1 30 4 34 9 12 12 11 347 -1 357 -6 5 -29 7
-51 5 -56 -5 -66 4 -61 52 2 22 -1 47 -7 54 -13 17 -127 20 -138 4 -5 -7 -8
-7 -8 0 0 6 -18 11 -40 12 -47 2 -57 -12 -54 -74 1 -24 -2 -41 -6 -38 -4 3
-11 -2 -14 -11 -3 -9 -11 -12 -18 -8 -17 10 -58 11 -58 2 0 -5 -11 -1 -25 8
-24 16 -25 16 -19 -2 6 -15 4 -17 -6 -7 -9 8 -19 9 -32 2 -10 -5 -18 -6 -18
-1 0 10 -91 9 -108 -2 -7 -4 -12 -3 -12 2 0 9 -103 8 -119 -2 -5 -4 -12 -2
-16 4 -4 6 -11 8 -16 5 -5 -4 -9 -1 -9 5 0 6 -4 9 -9 6 -12 -8 -21 18 -21 57
0 35 -5 44 -34 67 -12 9 -17 10 -12 3 8 -14 9 -14 -84 -17 -36 -1 -71 3 -79 8
-11 8 -13 8 -7 -1 4 -7 3 -13 -2 -13 -13 0 -24 36 -25 85 l-2 40 -475 1 c-321
1 -480 -2 -490 -10 -8 -6 -12 -6 -7 -1 4 4 -1 17 -10 27 -14 16 -15 24 -6 49
13 34 8 59 -13 59 -8 0 -14 6 -14 13 0 7 -4 6 -10 -4 -6 -11 -18 -15 -35 -12
-13 3 -22 9 -19 14 3 5 -2 6 -10 3 -19 -7 -30 27 -21 66 9 43 -19 68 -54 46
-8 -5 -16 -4 -21 4 -6 10 -9 9 -13 -1 -5 -12 -6 -12 -6 0 -1 11 -4 11 -18 0
-14 -12 -16 -12 -8 0 6 11 5 12 -6 5 -17 -10 -92 -13 -99 -3 -3 4 -11 -4 -18
-19z m772 -5564 c-6 -10 -5 -10 7 -1 15 12 28 12 67 -1 12 -4 20 -12 17 -17
-4 -5 -2 -9 2 -9 5 0 9 -9 9 -20 0 -11 -4 -20 -9 -20 -4 0 -5 -5 -2 -10 4 -6
11 -7 17 -4 7 4 8 2 4 -5 -4 -6 -11 -9 -16 -6 -5 3 -7 -21 -6 -52 1 -32 -2
-63 -7 -70 -5 -7 -1 -14 12 -18 12 -3 21 -9 21 -13 0 -4 15 -7 34 -7 19 0 32
4 29 9 -3 5 0 7 8 4 8 -3 19 -21 24 -42 6 -20 13 -36 15 -34 3 2 1 -1 -5 -7
-11 -10 -12 -51 -2 -62 4 -3 2 -14 -4 -24 -7 -13 -6 -19 1 -19 6 0 8 -5 4 -12
-4 -7 -7 -70 -6 -141 1 -101 -2 -133 -13 -144 -8 -8 -20 -11 -26 -7 -8 4 -9 3
-5 -4 4 -7 2 -12 -3 -12 -6 0 -11 5 -11 10 0 6 -5 10 -11 10 -5 0 -7 -6 -3
-12 6 -10 4 -10 -8 0 -13 10 -19 10 -31 -2 -12 -12 -14 -46 -12 -180 1 -141
-1 -168 -14 -180 -9 -7 -25 -12 -36 -9 -20 4 -32 4 -60 1 -14 -1 -22 -51 -16
-97 2 -7 -2 -10 -8 -6 -6 3 -9 0 -5 -8 3 -8 1 -18 -5 -22 -6 -3 -11 -1 -11 5
0 6 -4 9 -9 5 -5 -3 -13 -1 -16 5 -4 7 -11 8 -18 2 -7 -6 -54 -9 -105 -8 -51
1 -96 -2 -98 -6 -3 -5 -10 -6 -15 -2 -17 10 -109 10 -109 0 0 -5 -3 -6 -7 -3
-3 4 -17 0 -31 -9 -13 -9 -22 -12 -18 -6 3 5 -4 12 -15 15 -16 4 -20 11 -16
26 3 12 1 21 -4 21 -15 0 -10 36 6 50 8 7 12 16 9 21 -3 5 1 10 8 10 7 1 23 3
36 4 12 1 22 -3 22 -9 0 -6 5 -4 10 4 9 13 10 13 10 0 1 -18 22 27 25 53 1 10
-2 20 -7 23 -11 7 -10 131 2 139 5 3 6 13 3 22 -5 12 -2 15 10 10 9 -3 17 -3
17 1 0 5 15 7 33 6 56 -5 65 2 65 51 0 25 -4 45 -9 45 -5 0 -9 50 -9 110 0 67
4 110 10 110 6 0 9 3 8 8 -5 26 17 42 58 42 32 0 44 4 44 15 0 8 4 15 8 15 5
0 9 29 9 65 0 36 -3 65 -8 65 -5 0 -9 14 -9 30 0 17 5 30 10 30 6 0 10 7 10
16 0 8 5 12 10 9 6 -3 10 -2 10 3 0 5 11 12 25 14 14 3 25 2 25 -2 0 -4 7 -7
15 -7 8 0 15 4 15 9 0 4 6 8 13 8 9 0 12 24 12 85 0 47 -3 85 -7 85 -4 0 -1
10 5 23 18 33 28 47 33 47 3 0 2 -6 -2 -12z m1616 -2432 c0 -3 -4 -8 -10 -11
-5 -3 -10 -1 -10 4 0 6 5 11 10 11 6 0 10 -2 10 -4z"/>
<path d="M6355 5889 c3 -5 0 -6 -8 -3 -8 3 -20 -3 -28 -12 -11 -14 -11 -16 0
-10 8 5 6 -3 -5 -20 -11 -15 -13 -25 -6 -21 22 14 13 -10 -10 -27 -13 -9 -17
-14 -10 -11 7 4 18 2 25 -3 7 -5 31 -10 54 -10 24 -1 47 -3 52 -6 21 -13 29
92 9 113 -11 11 -10 12 2 6 9 -5 12 -4 7 1 -11 12 -89 15 -82 3z m-25 -99 c0
-5 -2 -10 -4 -10 -3 0 -8 5 -11 10 -3 6 -1 10 4 10 6 0 11 -4 11 -10z"/>
<path d="M6051 604 c0 -11 3 -14 6 -6 3 7 2 16 -1 19 -3 4 -6 -2 -5 -13z"/>
</g>
</svg>
